HIERARCHY
ROOT root
{
	OFFSET 0.000000 0.000000 0.000000
	CHANNELS 6 Xposition Yposition Zposition Zrotation Yrotation Xrotation
	JOINT lhip
	{
		OFFSET 0.058581 -0.082280 -0.017664
		CHANNELS 3 Zrotation Yrotation Xrotation
		JOINT lknee
		{
			OFFSET 0.043451 -0.386469 0.008037
			CHANNELS 3 Zrotation Yrotation Xrotation
			JOINT lankle
			{
				OFFSET -0.014790 -0.426874 -0.037428
				CHANNELS 3 Zrotation Yrotation Xrotation
				JOINT ltoe
				{
					OFFSET 0.041054 -0.060286 0.122042
					CHANNELS 3 Zrotation Yrotation Xrotation
					End Site
					{
						OFFSET 0.000000 0.000000 0.000000
					}
				}
			}
		}
	}
	JOINT rhip
	{
		OFFSET -0.060310 -0.090513 -0.013543
		CHANNELS 3 Zrotation Yrotation Xrotation
		JOINT rknee
		{
			OFFSET -0.043257 -0.383688 -0.004843
			CHANNELS 3 Zrotation Yrotation Xrotation
			JOINT rankle
			{
				OFFSET 0.019056 -0.420046 -0.034562
				CHANNELS 3 Zrotation Yrotation Xrotation
				JOINT rtoe
				{
					OFFSET -0.034840 -0.062106 0.130323
					CHANNELS 3 Zrotation Yrotation Xrotation
					End Site
					{
						OFFSET 0.000000 0.000000 0.000000
					}
				}
			}
		}
	}
	JOINT lowerback
	{
		OFFSET 0.004439 0.124404 -0.038385
		CHANNELS 3 Zrotation Yrotation Xrotation
		JOINT upperback
		{
			OFFSET 0.004488 0.137956 0.026820
			CHANNELS 3 Zrotation Yrotation Xrotation
			JOINT chest
			{
				OFFSET -0.002265 0.056032 0.002855
				CHANNELS 3 Zrotation Yrotation Xrotation
				JOINT lowerneck
				{
					OFFSET -0.013390 0.211636 -0.033468
					CHANNELS 3 Zrotation Yrotation Xrotation
					JOINT upperneck
					{
						OFFSET 0.010113 0.088937 0.050410
						CHANNELS 3 Zrotation Yrotation Xrotation
						End Site
						{
							OFFSET 0.000000 0.000000 0.000000
						}
					}
				}
				JOINT lclavicle
				{
					OFFSET 0.071702 0.114000 -0.018898
					CHANNELS 3 Zrotation Yrotation Xrotation
					JOINT lshoulder
					{
						OFFSET 0.122921 0.045205 -0.019046
						CHANNELS 3 Zrotation Yrotation Xrotation
						JOINT lelbow
						{
							OFFSET 0.255332 -0.015649 -0.022946
							CHANNELS 3 Zrotation Yrotation Xrotation
							JOINT lwrist
							{
								OFFSET 0.265709 0.012698 -0.007375
								CHANNELS 3 Zrotation Yrotation Xrotation
								End Site
								{
									OFFSET 0.000000 0.000000 0.000000
								}
							}
						}
					}
				}
				JOINT rclavicle
				{
					OFFSET -0.082954 0.112472 -0.023707
					CHANNELS 3 Zrotation Yrotation Xrotation
					JOINT rshoulder
					{
						OFFSET -0.113228 0.046853 -0.008472
						CHANNELS 3 Zrotation Yrotation Xrotation
						JOINT relbow
						{
							OFFSET -0.260127 -0.014369 -0.031269
							CHANNELS 3 Zrotation Yrotation Xrotation
							JOINT rwrist
							{
								OFFSET -0.269108 0.006794 -0.006027
								CHANNELS 3 Zrotation Yrotation Xrotation
								End Site
								{
									OFFSET 0.000000 0.000000 0.000000
								}
							}
						}
					}
				}
			}
		}
	}
}
MOTION
Frames: 14
Frame Time: 0.033333
0.529506 0.568204 0.594761 -60.512820 20.644460 72.430772 26.898778 9.114361 -76.685793 -8.927742 4.874705 81.259817 -7.650245 -9.033182 7.117026 0.000000 -0.000000 0.000000 -22.085567 -5.149384 -31.687445 -4.981787 5.513965 67.330680 13.990340 -0.810757 -2.454030 0.000000 -0.000000 0.000000 -6.543204 20.662114 67.628978 -0.319138 -10.493543 6.823742 2.210627 -3.384778 -7.416266 -8.484113 -20.697058 6.877159 39.160647 -25.121886 -25.975479 -6.995407 -30.093922 -0.206097 8.536826 -15.542907 -20.240865 138.022316 -60.315557 -124.542824 13.607951 -13.901072 -8.635591 16.875438 16.422516 2.487600 34.760476 -13.751858 -16.289389 -152.750044 30.299803 -119.339111 -18.058201 16.919610 10.400729 
0.531498 0.563409 0.595840 -58.977622 21.162045 72.382067 26.357462 8.672407 -76.784973 -9.651509 5.418657 81.222492 -7.275548 -9.082146 6.911138 0.000000 -0.000000 0.000000 -22.006461 -3.491723 -30.354355 -4.756851 5.721919 68.003157 14.191758 -2.880793 -1.362139 0.000000 -0.000000 0.000000 -6.068584 21.245881 67.707666 -0.161699 -10.606907 8.027818 2.552065 -3.492863 -7.421117 -7.558037 -19.953613 7.116976 38.961856 -24.704093 -25.537366 -7.818608 -30.306752 0.641492 8.808480 -12.700698 -20.028882 133.144570 -60.152681 -121.262023 14.950047 -14.526876 -7.097612 17.597335 16.337309 1.880371 34.510863 -14.731328 -15.753030 -152.966740 30.216815 -119.621371 -20.624636 16.658528 12.272529 
0.533116 0.557791 0.593484 -58.119081 21.823046 72.466105 25.990372 8.834293 -77.368300 -9.728935 5.674943 81.621968 -6.914012 -9.366693 7.002850 0.000000 -0.000000 0.000000 -21.555564 -3.244179 -30.110759 -4.357235 5.692982 68.733847 12.750208 -3.282875 -1.690647 0.000000 -0.000000 0.000000 -6.683665 21.079266 67.135920 0.233569 -10.241216 8.031266 2.291780 -2.744862 -7.361160 -6.942656 -19.667832 7.460227 38.799138 -24.821866 -25.194632 -9.105376 -29.455966 1.648675 8.267442 -10.719720 -19.267047 129.185633 -59.981456 -117.855990 16.118163 -14.556187 -5.474302 18.586847 15.918516 2.252178 33.731701 -14.923355 -15.393138 -152.964794 30.102484 -119.829574 -20.314308 16.600303 12.537837 
0.532573 0.558317 0.597494 -57.600996 22.591747 72.199936 25.219716 9.395642 -77.223834 -10.972317 4.948424 81.485382 -6.581783 -8.773262 7.102914 0.000000 -0.000000 0.000000 -20.186138 -2.963080 -29.694175 -3.878389 5.516783 69.745363 9.949879 -2.731881 -5.823366 0.000000 -0.000000 0.000000 -6.413561 22.348344 67.042861 0.129772 -10.331572 8.271931 3.070840 -2.968341 -6.505673 -5.189219 -18.513882 6.275166 38.070697 -25.817851 -23.958206 -9.060767 -27.813311 1.699157 6.122788 -6.949690 -18.712966 122.942558 -59.901025 -111.818823 17.934971 -15.067086 -3.125953 18.483287 15.901448 1.451105 35.233200 -13.811699 -15.363321 -153.190940 30.721230 -119.421564 -20.379317 16.684185 12.784456 
0.532416 0.552593 0.595424 -56.675822 23.205651 71.839582 25.589733 9.486062 -77.333417 -9.404073 7.190034 82.108911 -6.509734 -10.124891 7.927810 0.000000 -0.000000 0.000000 -20.009319 -4.048420 -28.755520 -4.813945 3.798681 69.489240 7.489259 -3.691519 -8.134159 0.000000 -0.000000 0.000000 -6.473017 21.681120 67.086208 0.235883 -10.238312 8.503000 2.975079 -2.914223 -7.560658 -5.788392 -20.611954 9.696027 38.160130 -24.447266 -24.845231 -12.331988 -26.027539 3.907637 5.302937 -2.860609 -18.885900 117.436865 -59.903382 -107.450052 17.099167 -15.133852 -1.220415 19.944733 16.533239 3.190873 34.789691 -13.693751 -16.167677 -153.138621 30.933099 -120.446080 -20.720192 16.904899 12.852425 
0.530792 0.550253 0.595334 -56.028658 24.331531 71.154853 24.996989 10.382277 -77.020257 -7.758358 8.527065 82.583303 -4.793151 -9.308693 7.397711 0.000000 -0.000000 0.000000 -18.680283 -4.864272 -27.062844 -5.029859 2.343503 68.186779 7.544084 -5.200599 -6.460138 0.000000 -0.000000 0.000000 -6.959249 22.071919 66.487593 0.535370 -9.739418 8.760966 3.460614 -2.438348 -7.623900 -5.511450 -21.215187 11.033511 37.900934 -23.484002 -23.927971 -14.038019 -24.014359 5.856322 3.291513 0.552017 -19.424697 110.855046 -59.778870 -101.460350 17.727912 -14.800936 1.594501 20.608705 16.887203 4.219701 35.909604 -12.728516 -16.358345 -152.751438 31.532471 -120.609734 -21.291211 17.025277 13.040182 
0.529857 0.547626 0.595235 -54.666419 24.936560 70.816043 24.926515 10.203718 -77.094921 -6.074524 10.125949 83.195430 -5.185877 -9.299418 8.408710 0.000000 -0.000000 0.000000 -18.778931 -4.248484 -24.842726 -7.698238 1.587843 67.453989 9.068116 -5.579571 -4.642526 0.000000 -0.000000 0.000000 -7.275041 22.425734 65.969832 0.586711 -9.835851 9.557081 3.715861 -2.047388 -8.111963 -4.874195 -22.431422 13.794943 37.932353 -23.120675 -23.797910 -15.040711 -22.569368 7.258375 0.038611 3.279011 -19.724187 104.245232 -58.465696 -93.928944 17.277745 -15.356155 5.924492 20.907632 17.130258 4.547671 38.793869 -11.513175 -16.141402 -152.947209 32.126612 -120.404251 -20.915386 16.988960 11.914470 
0.529288 0.546276 0.594219 -53.357994 25.347119 71.250473 24.608245 10.435645 -78.043587 -4.370898 11.089234 83.622022 -5.641108 -9.278394 9.953800 0.000000 -0.000000 0.000000 -19.307821 -2.490536 -23.763931 -7.404861 2.175140 67.802724 9.979167 -2.941334 -4.067823 0.000000 -0.000000 0.000000 -7.816786 23.310087 64.973583 1.073060 -9.427674 9.742574 3.998956 -1.691372 -8.534281 -4.613107 -24.452284 17.598889 38.570115 -23.832514 -24.827269 -16.655525 -21.373599 8.723555 -2.942044 4.969061 -20.104021 98.642012 -56.788782 -88.426756 17.450570 -14.798508 8.957202 22.080096 16.964797 5.899482 41.817302 -10.174383 -16.555452 -153.543709 31.921504 -120.495917 -21.560588 16.446376 11.805092 
0.531393 0.545981 0.594167 -52.296162 25.429525 71.299159 24.080462 11.519424 -78.009959 -1.687021 12.863141 83.917058 -5.934233 -9.970527 10.264366 0.000000 -0.000000 0.000000 -20.405790 -2.265139 -22.717728 -5.467165 2.708330 67.340774 8.469794 -1.356872 -6.205446 0.000000 -0.000000 0.000000 -7.628555 23.375788 65.695348 0.526166 -8.676396 11.702094 4.354952 -1.258705 -11.438974 -5.210993 -24.770355 18.313293 39.101618 -24.318171 -24.836955 -18.155395 -20.029138 8.969882 -6.701893 6.127210 -20.701274 94.953252 -55.080752 -84.673238 17.480341 -13.282326 11.018522 22.637380 16.492533 6.892320 45.662508 -8.432778 -15.575881 -154.567875 31.087921 -121.137321 -21.542257 16.703765 10.776718 
0.534922 0.543754 0.594887 -51.474187 26.223534 71.166255 21.605632 12.917896 -78.485814 -0.537080 11.898181 84.101900 -6.870744 -10.373694 10.643552 0.000000 -0.000000 0.000000 -20.931256 -3.521807 -22.016348 -8.003993 1.430484 66.042238 7.583457 -1.718667 -9.168275 0.000000 -0.000000 0.000000 -5.412677 22.388746 67.204533 -0.907199 -7.861257 12.830680 4.387813 -0.936152 -12.713856 -6.574815 -24.867795 17.625108 39.590693 -25.046066 -24.837630 -19.501933 -20.116817 8.586839 -10.465613 7.443876 -20.822950 88.549991 -52.923841 -79.859391 21.860828 -14.171270 15.454593 22.276510 17.712054 6.982999 47.440718 -7.908746 -14.931631 -155.702039 30.959778 -123.254609 -23.865802 17.325545 11.056340 
0.535884 0.545016 0.597373 -51.802675 26.439561 70.921679 24.146517 15.813658 -78.088745 0.016433 15.823761 84.549160 -9.030067 -8.368882 13.158614 0.000000 -0.000000 0.000000 -21.854391 -4.645522 -22.358056 -10.262721 -0.482063 64.408525 5.952787 -4.873562 -9.282559 0.000000 -0.000000 0.000000 -5.835059 23.220447 67.914042 -1.002219 -6.420197 10.689998 4.291584 -0.484554 -10.553970 -10.035040 -27.136108 19.154773 38.024793 -24.966534 -23.576746 -20.315215 -19.634149 8.761957 -13.959405 6.310266 -23.719653 78.435356 -51.042886 -65.732528 23.620649 -14.474341 18.945793 21.488097 19.848618 8.801802 46.587563 -5.866348 -17.214392 -156.003538 32.087788 -121.719873 -23.186043 16.669235 8.798645 
0.540636 0.538082 0.596995 -51.706607 25.823917 68.807206 24.525815 17.332488 -77.246187 2.565097 16.205049 89.252031 -8.367589 -7.753460 12.122272 0.000000 -0.000000 0.000000 -24.493334 -6.755809 -19.937499 -10.307375 -0.144465 60.351024 5.516777 -5.287309 -3.289183 0.000000 -0.000000 0.000000 -3.492817 22.418646 71.477480 -2.487099 -5.822174 10.864029 3.029015 -0.555051 -10.319765 -12.866463 -27.289121 19.840584 37.891461 -24.035520 -21.452616 -24.111684 -21.324239 9.759339 -14.607837 6.338023 -25.801611 72.223327 -48.832201 -58.224881 22.844143 -15.120580 23.425032 23.220126 22.749205 10.954960 41.127423 -6.300055 -20.136674 -154.520466 32.859405 -121.677765 -23.139475 16.313560 9.548221 
0.539031 0.534155 0.596486 -50.585629 26.755308 69.947443 26.420804 18.196766 -77.358208 2.977825 15.708417 92.588518 -6.629614 -10.001609 5.793016 0.000000 -0.000000 0.000000 -25.554223 -7.647131 -19.305776 -9.272766 -0.326825 56.602272 8.344599 -3.967671 4.897649 0.000000 -0.000000 0.000000 -3.167903 22.692084 71.610027 -2.623591 -5.016686 12.472790 3.759798 -0.284415 -12.353346 -14.231261 -28.806105 22.046581 36.997320 -22.813034 -20.904323 -26.614874 -21.088512 10.422411 -19.307873 5.321258 -24.336236 75.755278 -48.450517 -60.766606 27.068461 -17.817317 24.135211 22.523947 23.925117 11.183384 36.852635 -6.164759 -19.984883 -152.540927 33.947037 -121.981088 -22.811615 13.015838 11.434196 
0.539720 0.532659 0.597328 -49.762832 27.330534 71.115059 26.843720 19.889494 -74.758852 2.153853 18.568168 90.206031 -1.949585 -10.582852 -2.394669 0.000000 -0.000000 0.000000 -26.137759 -7.714370 -18.947090 -6.007848 1.697655 52.699691 8.721510 -1.353216 8.562217 0.000000 -0.000000 0.000000 -2.761143 22.623356 72.571149 -3.459046 -4.720828 11.394197 3.804153 -0.915822 -10.693694 -13.465307 -30.311105 19.896417 36.543787 -22.209949 -18.294489 -27.254128 -20.787988 10.582488 -24.856715 4.193831 -23.598961 83.229105 -50.188106 -62.461313 34.558691 -21.533641 23.289704 21.184979 25.078071 10.836050 34.004367 -4.291324 -22.003132 -151.708413 35.904266 -120.854342 -23.797484 9.851973 11.674555 
